<svg xmlns="http://www.w3.org/2000/svg" xmlns:xlink="http://www.w3.org/1999/xlink" viewBox="0 0 69.34 69.34"><defs><style>.cls-1{isolation:isolate;}.cls-2{fill:url(#radial-gradient);}.cls-3{fill:#fff;opacity:0.5;}.cls-3,.cls-7,.cls-8{mix-blend-mode:overlay;}.cls-4{fill:url(#radial-gradient-2);}.cls-5{fill:#b0b1b6;}.cls-6{fill:#5d5e61;}.cls-7{fill:url(#radial-gradient-3);}.cls-8{opacity:0.4;fill:url(#Degradado_sin_nombre_34);}</style><radialGradient id="radial-gradient" cx="-1312.61" cy="282.19" r="65.81" gradientTransform="translate(1948.24)" gradientUnits="userSpaceOnUse"><stop offset="0" stop-color="#fcfcfc"/><stop offset="0.16" stop-color="#f1edf5"/><stop offset="1" stop-color="#9fa1a6"/></radialGradient><radialGradient id="radial-gradient-2" cx="682.44" cy="260.66" r="58.42" gradientUnits="userSpaceOnUse"><stop offset="0" stop-color="#fcfcfc"/><stop offset="0.16" stop-color="#adaab0"/><stop offset="1" stop-color="#6b6d70"/></radialGradient><radialGradient id="radial-gradient-3" cx="782.28" cy="-2138.59" r="9.88" gradientTransform="matrix(1.2, 0.78, 1.04, -1.81, 1917.6, -4174.98)" gradientUnits="userSpaceOnUse"><stop offset="0" stop-color="#fff"/><stop offset="0.1" stop-color="#fff" stop-opacity="0.85"/><stop offset="0.29" stop-color="#fff" stop-opacity="0.59"/><stop offset="0.47" stop-color="#fff" stop-opacity="0.38"/><stop offset="0.63" stop-color="#fff" stop-opacity="0.22"/><stop offset="0.78" stop-color="#fff" stop-opacity="0.1"/><stop offset="0.91" stop-color="#fff" stop-opacity="0.03"/><stop offset="1" stop-color="#fff" stop-opacity="0"/></radialGradient><radialGradient id="Degradado_sin_nombre_34" cx="-3804.26" cy="4453.58" r="9.53" gradientTransform="matrix(1.46, -0.67, 0.02, -0.76, 6122.31, 1170.15)" xlink:href="#radial-gradient-3"/></defs><title>chad</title><g class="cls-1"><g id="OBJECTS"><path class="cls-2" d="M678.23,303.93a34.67,34.67,0,1,1-34.67-34.67A34.67,34.67,0,0,1,678.23,303.93Z" transform="translate(-608.89 -269.26)"/><path class="cls-3" d="M638.54,293.29a34.66,34.66,0,0,0,30.28,34.38c.82-.88,1.6-1.8,2.33-2.75a34.65,34.65,0,0,0-23.59-55A34.56,34.56,0,0,0,638.54,293.29Z" transform="translate(-608.89 -269.26)"/><path class="cls-4" d="M647.88,269.54a34.66,34.66,0,0,0,21.33,57.72,34.67,34.67,0,0,0-21.33-57.72Z" transform="translate(-608.89 -269.26)"/><path class="cls-5" d="M619.34,310.06c3.25-.29,5.58-4,5.2-8.25s-3.33-7.49-6.59-7.19-5.59,4-5.21,8.25S616.08,310.36,619.34,310.06Z" transform="translate(-608.89 -269.26)"/><path class="cls-5" d="M616.51,313.16c-2,1-2.44,3.93-1.1,6.49s4,3.79,6,2.77,2.44-3.93,1.1-6.48S618.46,312.14,616.51,313.16Z" transform="translate(-608.89 -269.26)"/><path class="cls-5" d="M624.24,310.08c-1.15.61-1.44,2.32-.65,3.83s2.37,2.25,3.53,1.64,1.44-2.32.65-3.83S625.4,309.48,624.24,310.08Z" transform="translate(-608.89 -269.26)"/><path class="cls-6" d="M675.58,305.18c-.6-4.24-3.71-7.3-7-6.85s-5.37,4.27-4.77,8.51,3.7,7.31,6.94,6.85S676.18,309.42,675.58,305.18Z" transform="translate(-608.89 -269.26)"/><path class="cls-6" d="M671.3,295.09c1.9-1.12,2.24-4,.77-6.53S667.88,285,666,286.1s-2.24,4-.77,6.53S669.4,296.21,671.3,295.09Z" transform="translate(-608.89 -269.26)"/><path class="cls-6" d="M664.19,294.7c-.87-1.46-2.48-2.12-3.6-1.45s-1.33,2.39-.46,3.85,2.48,2.12,3.6,1.46S665.06,296.17,664.19,294.7Z" transform="translate(-608.89 -269.26)"/><path class="cls-7" d="M638.38,300.66c5.68-9.85,5-21.27-1.53-25.51s-16.43.32-22.11,10.16-5,21.27,1.53,25.51S632.7,310.5,638.38,300.66Z" transform="translate(-608.89 -269.26)"/><path class="cls-8" d="M674.12,318.44c.11-4-6-4.4-13.73-.88s-14,9.62-14.14,13.63,6,4.4,13.72.88S674,322.44,674.12,318.44Z" transform="translate(-608.89 -269.26)"/></g></g></svg>