<svg xmlns="http://www.w3.org/2000/svg" xmlns:xlink="http://www.w3.org/1999/xlink" viewBox="0 0 103 72.13"><defs><style>.cls-1{isolation:isolate;}.cls-2{fill:url(#radial-gradient);}.cls-3{opacity:0.5;fill:url(#radial-gradient-2);}.cls-3,.cls-4,.cls-5,.cls-7,.cls-8,.cls-9{mix-blend-mode:overlay;}.cls-4{opacity:0.3;fill:url(#radial-gradient-3);}.cls-5,.cls-9{opacity:0.2;}.cls-5{fill:url(#Degradado_sin_nombre_34);}.cls-6{fill:url(#radial-gradient-4);}.cls-7{fill:url(#radial-gradient-5);}.cls-8{opacity:0.4;fill:url(#radial-gradient-6);}.cls-9{fill:url(#Degradado_sin_nombre_34-2);}</style><radialGradient id="radial-gradient" cx="1672.1" cy="48.08" r="70.49" gradientTransform="matrix(-1, 0, 0, 1, 2035.19, 0)" gradientUnits="userSpaceOnUse"><stop offset="0" stop-color="#bad0d6"/><stop offset="0.2" stop-color="#9bbac2"/><stop offset="1" stop-color="#5d8bb8"/></radialGradient><radialGradient id="radial-gradient-2" cx="755.15" cy="-2124.89" r="8.27" gradientTransform="matrix(0.84, 1.15, 1.62, -1.31, 3168.78, -3602.4)" gradientUnits="userSpaceOnUse"><stop offset="0" stop-color="#fff"/><stop offset="0.1" stop-color="#fff" stop-opacity="0.85"/><stop offset="0.29" stop-color="#fff" stop-opacity="0.59"/><stop offset="0.47" stop-color="#fff" stop-opacity="0.38"/><stop offset="0.63" stop-color="#fff" stop-opacity="0.22"/><stop offset="0.78" stop-color="#fff" stop-opacity="0.1"/><stop offset="0.91" stop-color="#fff" stop-opacity="0.03"/><stop offset="1" stop-color="#fff" stop-opacity="0"/></radialGradient><radialGradient id="radial-gradient-3" cx="779.57" cy="-2112.64" r="4.55" xlink:href="#radial-gradient-2"/><radialGradient id="Degradado_sin_nombre_34" cx="1819.41" cy="69.24" r="4.75" gradientTransform="matrix(-0.71, -0.46, -1.4, 1.83, 1799.25, 793.73)" xlink:href="#radial-gradient-2"/><radialGradient id="radial-gradient-4" cx="1692.63" cy="63.43" r="70.49" gradientTransform="matrix(-1, 0, 0, 1, 2035.19, 0)" gradientUnits="userSpaceOnUse"><stop offset="0" stop-color="#fff"/><stop offset="0.2" stop-color="#d9f7ff"/><stop offset="1" stop-color="#89c0f5"/></radialGradient><radialGradient id="radial-gradient-5" cx="754.44" cy="-2137.2" r="8.27" xlink:href="#radial-gradient-2"/><radialGradient id="radial-gradient-6" cx="778.86" cy="-2124.95" r="4.55" xlink:href="#radial-gradient-2"/><radialGradient id="Degradado_sin_nombre_34-2" cx="1840.13" cy="93.08" r="4.75" gradientTransform="matrix(-0.71, -0.46, -1.4, 1.83, 1826.71, 774.92)" xlink:href="#radial-gradient-2"/></defs><title>cloud</title><g class="cls-1"><g id="OBJECTS"><path class="cls-2" d="M373.73,40.29A28.39,28.39,0,0,1,401.32,62a18.46,18.46,0,1,1,8,35.09H373.73a28.39,28.39,0,1,1,0-56.78Z" transform="translate(-324.82 -40.29)"/><path class="cls-3" d="M370.1,67.41c7.39-6,10.28-15.12,6.44-20.39s-12.93-4.68-20.33,1.31-10.27,15.13-6.44,20.4S362.7,73.41,370.1,67.41Z" transform="translate(-324.82 -40.29)"/><path class="cls-4" d="M407.29,75.2c4.07-3.29,5.65-8.31,3.55-11.21s-7.11-2.57-11.18.72S394,73,396.12,75.92,403.23,78.5,407.29,75.2Z" transform="translate(-324.82 -40.29)"/><path class="cls-5" d="M416.31,82.38c4.47-4.52,9.08-6.28,10.31-3.95s-1.4,7.9-5.87,12.42-9.09,6.29-10.31,4S411.84,86.9,416.31,82.38Z" transform="translate(-324.82 -40.29)"/><path class="cls-6" d="M353.21,55.63a28.38,28.38,0,0,1,27.58,21.7,18.46,18.46,0,1,1,8,35.08H353.21a28.39,28.39,0,1,1,0-56.78Z" transform="translate(-324.82 -40.29)"/><path class="cls-7" d="M349.57,82.76c7.39-6,10.28-15.13,6.45-20.39s-12.94-4.68-20.33,1.31-10.28,15.13-6.45,20.4S342.18,88.76,349.57,82.76Z" transform="translate(-324.82 -40.29)"/><path class="cls-8" d="M386.77,90.55c4.06-3.29,5.65-8.31,3.54-11.21s-7.11-2.57-11.17.72-5.65,8.32-3.54,11.21S382.71,93.85,386.77,90.55Z" transform="translate(-324.82 -40.29)"/><path class="cls-9" d="M395.78,97.73c4.47-4.52,9.08-6.28,10.31-4s-1.4,7.9-5.87,12.42-9.08,6.29-10.31,4S391.31,102.25,395.78,97.73Z" transform="translate(-324.82 -40.29)"/></g></g></svg>