<svg xmlns="http://www.w3.org/2000/svg" xmlns:xlink="http://www.w3.org/1999/xlink" viewBox="0 0 68.51 66.09"><defs><style>.cls-1{isolation:isolate;}.cls-2{fill:url(#radial-gradient);}.cls-3,.cls-6{opacity:0.6;}.cls-3,.cls-4,.cls-6,.cls-7{mix-blend-mode:overlay;}.cls-3{fill:url(#radial-gradient-2);}.cls-4,.cls-7{opacity:0.3;}.cls-4{fill:url(#Degradado_sin_nombre_34);}.cls-5{fill:url(#radial-gradient-3);}.cls-6{fill:url(#radial-gradient-4);}.cls-7{fill:url(#Degradado_sin_nombre_34-2);}</style><radialGradient id="radial-gradient" cx="2166.72" cy="417.42" r="35.05" gradientTransform="matrix(-1, 0, 0, 1, 2833.48, 0)" gradientUnits="userSpaceOnUse"><stop offset="0" stop-color="#b0ffee"/><stop offset="0.19" stop-color="#66afff"/><stop offset="1" stop-color="#446cf5"/></radialGradient><radialGradient id="radial-gradient-2" cx="428.31" cy="-2216.68" r="6.08" gradientTransform="matrix(0.84, 1.15, 1.62, -1.31, 3895.21, -2986.48)" gradientUnits="userSpaceOnUse"><stop offset="0" stop-color="#fff"/><stop offset="0.1" stop-color="#fff" stop-opacity="0.85"/><stop offset="0.29" stop-color="#fff" stop-opacity="0.59"/><stop offset="0.47" stop-color="#fff" stop-opacity="0.38"/><stop offset="0.63" stop-color="#fff" stop-opacity="0.22"/><stop offset="0.78" stop-color="#fff" stop-opacity="0.1"/><stop offset="0.91" stop-color="#fff" stop-opacity="0.03"/><stop offset="1" stop-color="#fff" stop-opacity="0"/></radialGradient><radialGradient id="Degradado_sin_nombre_34" cx="1709.46" cy="169" r="4.34" gradientTransform="matrix(-0.65, -0.53, 1.32, -1.89, 1542.87, 1631.27)" xlink:href="#radial-gradient-2"/><radialGradient id="radial-gradient-3" cx="624.75" cy="435.75" r="48.99" gradientTransform="matrix(1, 0, 0, 1, 0, 0)" xlink:href="#radial-gradient"/><radialGradient id="radial-gradient-4" cx="1120.02" cy="-1622.67" r="8.5" gradientTransform="matrix(-0.84, 1.15, -1.62, -1.31, -1061.72, -2986.48)" xlink:href="#radial-gradient-2"/><radialGradient id="Degradado_sin_nombre_34-2" cx="882.16" cy="1927.56" r="6.06" gradientTransform="matrix(0.65, -0.53, -1.32, -1.89, 2617.23, 4519.17)" xlink:href="#radial-gradient-2"/></defs><title>rain_new</title><g class="cls-1"><g id="OBJECTS"><path class="cls-2" d="M645.54,411.26a16.14,16.14,0,0,0,32.28,0c0-8.92-16.14-27-16.14-27S645.54,402.34,645.54,411.26Z" transform="translate(-609.31 -384.25)"/><path class="cls-3" d="M671.83,424.24c5.43-4.4,7.56-11.11,4.74-15s-9.51-3.45-15,1-7.56,11.14-4.74,15S666.4,428.66,671.83,424.24Z" transform="translate(-609.31 -384.25)"/><path class="cls-4" d="M650.88,398.45c-2.7,5.13-3,9.63-.59,10.06s6.48-3.39,9.18-8.53,3-9.63.59-10.05S653.58,393.32,650.88,398.45Z" transform="translate(-609.31 -384.25)"/><path class="cls-5" d="M654.42,427.14a22.56,22.56,0,1,1-45.11,0c0-12.46,22.55-37.73,22.55-37.73S654.41,414.69,654.42,427.14Z" transform="translate(-609.31 -384.25)"/><path class="cls-6" d="M617.67,445.29c-7.59-6.16-10.57-15.54-6.62-21s13.29-4.81,20.89,1.35,10.56,15.56,6.62,21S625.26,451.46,617.67,445.29Z" transform="translate(-609.31 -384.25)"/><path class="cls-7" d="M647,409.25c3.77,7.17,4.14,13.46.83,14.06s-9.06-4.75-12.83-11.92-4.14-13.46-.83-14.06S643.18,402.08,647,409.25Z" transform="translate(-609.31 -384.25)"/></g></g></svg>