<svg xmlns="http://www.w3.org/2000/svg" xmlns:xlink="http://www.w3.org/1999/xlink" viewBox="0 0 103 88.78"><defs><style>.cls-1{isolation:isolate;}.cls-2{fill:url(#radial-gradient);}.cls-3{opacity:0.5;fill:url(#radial-gradient-2);}.cls-11,.cls-13,.cls-15,.cls-17,.cls-19,.cls-3,.cls-4,.cls-5,.cls-7,.cls-8,.cls-9{mix-blend-mode:overlay;}.cls-4{opacity:0.3;fill:url(#radial-gradient-3);}.cls-5,.cls-9{opacity:0.2;}.cls-5{fill:url(#Degradado_sin_nombre_34);}.cls-6{fill:url(#radial-gradient-4);}.cls-7{fill:url(#radial-gradient-5);}.cls-8{opacity:0.4;fill:url(#radial-gradient-6);}.cls-9{fill:url(#Degradado_sin_nombre_34-2);}.cls-10{fill:url(#radial-gradient-7);}.cls-11{fill:url(#radial-gradient-8);}.cls-12{fill:url(#radial-gradient-9);}.cls-13{fill:url(#radial-gradient-10);}.cls-14{fill:url(#radial-gradient-11);}.cls-15{fill:url(#radial-gradient-12);}.cls-16{fill:url(#radial-gradient-13);}.cls-17{fill:url(#radial-gradient-14);}.cls-18{fill:url(#radial-gradient-15);}.cls-19{fill:url(#radial-gradient-16);}</style><radialGradient id="radial-gradient" cx="1538.48" cy="155.01" r="70.49" gradientTransform="matrix(-1, 0, 0, 1, 2035.19, 0)" gradientUnits="userSpaceOnUse"><stop offset="0" stop-color="#bad0d6"/><stop offset="0.2" stop-color="#9bbac2"/><stop offset="1" stop-color="#5d8bb8"/></radialGradient><radialGradient id="radial-gradient-2" cx="872.53" cy="-2103.19" r="8.27" gradientTransform="matrix(0.84, 1.15, 1.62, -1.31, 3168.78, -3602.4)" gradientUnits="userSpaceOnUse"><stop offset="0" stop-color="#fff"/><stop offset="0.1" stop-color="#fff" stop-opacity="0.85"/><stop offset="0.29" stop-color="#fff" stop-opacity="0.59"/><stop offset="0.47" stop-color="#fff" stop-opacity="0.38"/><stop offset="0.63" stop-color="#fff" stop-opacity="0.22"/><stop offset="0.78" stop-color="#fff" stop-opacity="0.1"/><stop offset="0.91" stop-color="#fff" stop-opacity="0.03"/><stop offset="1" stop-color="#fff" stop-opacity="0"/></radialGradient><radialGradient id="radial-gradient-3" cx="896.95" cy="-2090.94" r="4.55" xlink:href="#radial-gradient-2"/><radialGradient id="Degradado_sin_nombre_34" cx="1644.94" cy="176.97" r="4.75" gradientTransform="matrix(-0.71, -0.46, -1.4, 1.83, 1960.51, 623.41)" xlink:href="#radial-gradient-2"/><radialGradient id="radial-gradient-4" cx="1559" cy="170.35" r="70.49" gradientTransform="matrix(-1, 0, 0, 1, 2035.19, 0)" gradientUnits="userSpaceOnUse"><stop offset="0" stop-color="#fff"/><stop offset="0.2" stop-color="#d9f7ff"/><stop offset="1" stop-color="#89c0f5"/></radialGradient><radialGradient id="radial-gradient-5" cx="871.82" cy="-2115.51" r="8.27" xlink:href="#radial-gradient-2"/><radialGradient id="radial-gradient-6" cx="896.24" cy="-2103.25" r="4.55" xlink:href="#radial-gradient-2"/><radialGradient id="Degradado_sin_nombre_34-2" cx="1665.66" cy="200.81" r="4.75" gradientTransform="matrix(-0.71, -0.46, -1.4, 1.83, 1987.97, 604.6)" xlink:href="#radial-gradient-2"/><radialGradient id="radial-gradient-7" cx="162.46" cy="92.35" r="9.89" gradientTransform="translate(384.56 71.8) rotate(30)" gradientUnits="userSpaceOnUse"><stop offset="0" stop-color="#d4f6ff"/><stop offset="0.2" stop-color="#d9f7ff"/><stop offset="1" stop-color="#89c0f5"/></radialGradient><radialGradient id="radial-gradient-8" cx="1441.02" cy="-1547.79" r="1.55" gradientTransform="matrix(-1.3, 0.58, -0.75, -1.95, 1204.38, -3614.57)" xlink:href="#radial-gradient-2"/><radialGradient id="radial-gradient-9" cx="182.07" cy="81.02" r="9.89" xlink:href="#radial-gradient-7"/><radialGradient id="radial-gradient-10" cx="1426.17" cy="-1552.21" r="1.55" gradientTransform="matrix(-1.3, 0.58, -0.75, -1.95, 1204.38, -3614.57)" xlink:href="#radial-gradient-2"/><radialGradient id="radial-gradient-11" cx="201.69" cy="69.7" r="9.89" xlink:href="#radial-gradient-7"/><radialGradient id="radial-gradient-12" cx="1411.32" cy="-1556.63" r="1.55" gradientTransform="matrix(-1.3, 0.58, -0.75, -1.95, 1204.38, -3614.57)" xlink:href="#radial-gradient-2"/><radialGradient id="radial-gradient-13" cx="167.16" cy="75.54" r="14.06" xlink:href="#radial-gradient-7"/><radialGradient id="radial-gradient-14" cx="1429.56" cy="-1544.79" r="2.2" gradientTransform="matrix(-1.3, 0.58, -0.75, -1.95, 1204.38, -3614.57)" xlink:href="#radial-gradient-2"/><radialGradient id="radial-gradient-15" cx="188.32" cy="63.31" r="14.06" xlink:href="#radial-gradient-7"/><radialGradient id="radial-gradient-16" cx="1413.54" cy="-1549.56" r="2.2" gradientTransform="matrix(-1.3, 0.58, -0.75, -1.95, 1204.38, -3614.57)" xlink:href="#radial-gradient-2"/></defs><title>rain</title><g class="cls-1"><g id="OBJECTS"><path class="cls-2" d="M507.35,147.21a28.39,28.39,0,0,1,27.59,21.7A18.46,18.46,0,1,1,543,204H507.35a28.39,28.39,0,0,1,0-56.78Z" transform="translate(-458.44 -147.21)"/><path class="cls-3" d="M503.72,174.34c7.39-6,10.28-15.13,6.45-20.4s-12.94-4.68-20.34,1.32-10.27,15.13-6.44,20.4S496.33,180.33,503.72,174.34Z" transform="translate(-458.44 -147.21)"/><path class="cls-4" d="M540.92,182.13c4.06-3.3,5.65-8.32,3.54-11.21s-7.11-2.57-11.17.72-5.65,8.32-3.55,11.21S536.85,185.42,540.92,182.13Z" transform="translate(-458.44 -147.21)"/><path class="cls-5" d="M549.93,189.31c4.47-4.52,9.08-6.29,10.31-3.95s-1.4,7.9-5.87,12.42-9.08,6.28-10.31,3.95S545.46,193.83,549.93,189.31Z" transform="translate(-458.44 -147.21)"/><path class="cls-6" d="M486.83,162.56a28.4,28.4,0,0,1,27.59,21.7,18.46,18.46,0,1,1,8,35.08H486.83a28.39,28.39,0,1,1,0-56.78Z" transform="translate(-458.44 -147.21)"/><path class="cls-7" d="M483.19,189.69c7.39-6,10.28-15.13,6.45-20.4s-12.93-4.68-20.33,1.32S459,185.74,462.86,191,475.8,195.68,483.19,189.69Z" transform="translate(-458.44 -147.21)"/><path class="cls-8" d="M520.39,197.48c4.06-3.3,5.65-8.32,3.55-11.21s-7.11-2.57-11.18.72-5.64,8.32-3.54,11.21S516.33,200.77,520.39,197.48Z" transform="translate(-458.44 -147.21)"/><path class="cls-9" d="M529.41,204.66c4.47-4.52,9.08-6.29,10.31-3.95s-1.4,7.89-5.87,12.42-9.09,6.28-10.32,3.94S524.94,209.18,529.41,204.66Z" transform="translate(-458.44 -147.21)"/><path class="cls-10" d="M484.58,233.94a4.11,4.11,0,0,1-7.12-4.11c1.13-2,8.15-5.91,8.15-5.91S485.71,232,484.58,233.94Z" transform="translate(-458.44 -147.21)"/><path class="cls-11" d="M477.58,233.26c-.64-1.67-.25-3.42.86-3.92s2.54.45,3.18,2.12.24,3.42-.87,3.91S478.21,234.92,477.58,233.26Z" transform="translate(-458.44 -147.21)"/><path class="cls-12" d="M507.23,233.94a4.11,4.11,0,0,1-7.13-4.11c1.14-2,8.16-5.91,8.16-5.91S508.36,232,507.23,233.94Z" transform="translate(-458.44 -147.21)"/><path class="cls-13" d="M500.23,233.26c-.64-1.67-.25-3.42.86-3.92s2.54.45,3.17,2.12.25,3.42-.86,3.91S500.86,234.92,500.23,233.26Z" transform="translate(-458.44 -147.21)"/><path class="cls-14" d="M529.88,233.94a4.11,4.11,0,0,1-7.13-4.11c1.14-2,8.16-5.91,8.16-5.91S531,232,529.88,233.94Z" transform="translate(-458.44 -147.21)"/><path class="cls-15" d="M522.88,233.26c-.64-1.67-.26-3.42.86-3.92s2.54.45,3.18,2.12.25,3.42-.87,3.91S523.51,234.92,522.88,233.26Z" transform="translate(-458.44 -147.21)"/><path class="cls-16" d="M499.38,222.13a5.85,5.85,0,0,1-10.13-5.85c1.61-2.8,11.6-8.4,11.6-8.4S501,219.33,499.38,222.13Z" transform="translate(-458.44 -147.21)"/><path class="cls-17" d="M489.42,221.15c-.9-2.36-.35-4.85,1.23-5.56s3.61.64,4.52,3,.35,4.86-1.23,5.56S490.33,223.52,489.42,221.15Z" transform="translate(-458.44 -147.21)"/><path class="cls-18" d="M523.81,222.13a5.84,5.84,0,0,1-10.12-5.85c1.62-2.8,11.6-8.4,11.6-8.4S525.43,219.33,523.81,222.13Z" transform="translate(-458.44 -147.21)"/><path class="cls-19" d="M513.86,221.15c-.9-2.36-.35-4.85,1.23-5.56s3.61.64,4.51,3,.36,4.86-1.22,5.56S514.77,223.52,513.86,221.15Z" transform="translate(-458.44 -147.21)"/></g></g></svg>