<svg xmlns="http://www.w3.org/2000/svg" xmlns:xlink="http://www.w3.org/1999/xlink" viewBox="0 0 84.19 92.58"><defs><style>.cls-1{isolation:isolate;}.cls-2{fill:url(#radial-gradient);}.cls-15,.cls-16,.cls-17,.cls-20,.cls-21,.cls-22,.cls-24,.cls-26,.cls-28,.cls-3,.cls-30,.cls-4{mix-blend-mode:overlay;}.cls-3{fill:url(#radial-gradient-2);}.cls-16,.cls-21,.cls-4{opacity:0.4;}.cls-4{fill:url(#Degradado_sin_nombre_34);}.cls-5{fill:url(#radial-gradient-3);}.cls-6{fill:url(#radial-gradient-4);}.cls-7{fill:url(#radial-gradient-5);}.cls-8{fill:url(#radial-gradient-6);}.cls-9{fill:url(#radial-gradient-7);}.cls-10{fill:url(#radial-gradient-8);}.cls-11{fill:url(#radial-gradient-9);}.cls-12{fill:url(#radial-gradient-10);}.cls-13{fill:url(#radial-gradient-11);}.cls-14{fill:url(#radial-gradient-12);}.cls-15{fill:url(#radial-gradient-13);}.cls-16{fill:url(#radial-gradient-14);}.cls-17,.cls-22{opacity:0.2;}.cls-17{fill:url(#Degradado_sin_nombre_34-2);}.cls-18{fill:url(#radial-gradient-15);}.cls-19{fill:url(#radial-gradient-16);}.cls-20{fill:url(#radial-gradient-17);}.cls-21{fill:url(#radial-gradient-18);}.cls-22{fill:url(#Degradado_sin_nombre_34-3);}.cls-23{fill:url(#radial-gradient-19);}.cls-24{fill:url(#radial-gradient-20);}.cls-25{fill:url(#radial-gradient-21);}.cls-26{fill:url(#radial-gradient-22);}.cls-27{fill:url(#radial-gradient-23);}.cls-28{fill:url(#radial-gradient-24);}.cls-29{fill:url(#radial-gradient-25);}.cls-30{fill:url(#radial-gradient-26);}</style><radialGradient id="radial-gradient" cx="332.21" cy="395.5" r="44.76" gradientTransform="matrix(-1, 0, 0, 1, 575.67, 0)" gradientUnits="userSpaceOnUse"><stop offset="0" stop-color="#fff8c7"/><stop offset="0.16" stop-color="#ffe436"/><stop offset="1" stop-color="#fe761c"/></radialGradient><radialGradient id="radial-gradient-2" cx="1571.67" cy="-1668.01" r="6.72" gradientTransform="matrix(-0.84, 1.15, -1.62, -1.31, -1133.59, -3602.4)" gradientUnits="userSpaceOnUse"><stop offset="0" stop-color="#fff"/><stop offset="0.1" stop-color="#fff" stop-opacity="0.85"/><stop offset="0.29" stop-color="#fff" stop-opacity="0.59"/><stop offset="0.47" stop-color="#fff" stop-opacity="0.38"/><stop offset="0.63" stop-color="#fff" stop-opacity="0.22"/><stop offset="0.78" stop-color="#fff" stop-opacity="0.1"/><stop offset="0.91" stop-color="#fff" stop-opacity="0.03"/><stop offset="1" stop-color="#fff" stop-opacity="0"/></radialGradient><radialGradient id="Degradado_sin_nombre_34" cx="-2602.98" cy="2813.08" r="6.48" gradientTransform="matrix(-1.17, -1.1, 0.22, -0.73, -3449.59, -393.7)" xlink:href="#radial-gradient-2"/><radialGradient id="radial-gradient-3" cx="238.59" cy="374.26" r="7.79" gradientTransform="matrix(1, 0, 0, 1, 0, 0)" xlink:href="#radial-gradient"/><radialGradient id="radial-gradient-4" cx="565.56" cy="-6.39" r="7.79" gradientTransform="translate(-182.43 788.87) rotate(-45)" xlink:href="#radial-gradient"/><radialGradient id="radial-gradient-5" cx="1065.84" cy="-44.53" r="7.79" gradientTransform="translate(246.58 1475.6) rotate(-90)" xlink:href="#radial-gradient"/><radialGradient id="radial-gradient-6" cx="1446.65" cy="282.43" r="7.79" gradientTransform="translate(1035.44 1658.03) rotate(-135)" xlink:href="#radial-gradient"/><radialGradient id="radial-gradient-7" cx="1484.63" cy="782.71" r="7.79" gradientTransform="translate(1722.18 1229.03) rotate(180)" xlink:href="#radial-gradient"/><radialGradient id="radial-gradient-8" cx="1157.83" cy="1163.53" r="7.79" gradientTransform="translate(1904.6 440.16) rotate(135)" xlink:href="#radial-gradient"/><radialGradient id="radial-gradient-9" cx="657.38" cy="1201.51" r="7.79" gradientTransform="translate(1475.61 -246.57) rotate(90)" xlink:href="#radial-gradient"/><radialGradient id="radial-gradient-10" cx="276.73" cy="874.71" r="7.79" gradientTransform="translate(686.74 -429) rotate(45)" xlink:href="#radial-gradient"/><radialGradient id="radial-gradient-11" cx="1823.86" cy="419.6" r="40.51" gradientTransform="matrix(-1, 0, 0, 1, 2035.19, 0)" gradientUnits="userSpaceOnUse"><stop offset="0" stop-color="#fff"/><stop offset="0.2" stop-color="#d9f7ff"/><stop offset="1" stop-color="#89c0f5"/></radialGradient><radialGradient id="radial-gradient-12" cx="225.82" cy="418.13" r="40.53" gradientUnits="userSpaceOnUse"><stop offset="0" stop-color="#ffe436"/><stop offset="0.08" stop-color="#ffcf31" stop-opacity="0.81"/><stop offset="0.18" stop-color="#ffb72b" stop-opacity="0.6"/><stop offset="0.28" stop-color="#fea327" stop-opacity="0.41"/><stop offset="0.38" stop-color="#fe9323" stop-opacity="0.26"/><stop offset="0.48" stop-color="#fe8620" stop-opacity="0.15"/><stop offset="0.58" stop-color="#fe7d1e" stop-opacity="0.07"/><stop offset="0.68" stop-color="#fe781c" stop-opacity="0.02"/><stop offset="0.77" stop-color="#fe761c" stop-opacity="0"/></radialGradient><radialGradient id="radial-gradient-13" cx="888.32" cy="-2287.72" r="4.75" gradientTransform="matrix(0.84, 1.15, 1.62, -1.31, 3168.78, -3602.4)" xlink:href="#radial-gradient-2"/><radialGradient id="radial-gradient-14" cx="902.36" cy="-2280.67" r="2.61" gradientTransform="matrix(0.84, 1.15, 1.62, -1.31, 3168.78, -3602.4)" xlink:href="#radial-gradient-2"/><radialGradient id="Degradado_sin_nombre_34-2" cx="1953.61" cy="557.66" r="2.73" gradientTransform="matrix(-0.71, -0.46, -1.4, 1.83, 2402.04, 315.98)" xlink:href="#radial-gradient-2"/><radialGradient id="radial-gradient-15" cx="-614.66" cy="399.88" r="32.13" gradientTransform="translate(891.36)" xlink:href="#radial-gradient-11"/><radialGradient id="radial-gradient-16" cx="248.82" cy="406.46" r="37.37" xlink:href="#radial-gradient-12"/><radialGradient id="radial-gradient-17" cx="1955.1" cy="-1334.25" r="3.77" gradientTransform="matrix(-0.84, 1.15, -1.62, -1.31, -242.23, -3602.4)" xlink:href="#radial-gradient-2"/><radialGradient id="radial-gradient-18" cx="1966.23" cy="-1328.67" r="2.07" gradientTransform="matrix(-0.84, 1.15, -1.62, -1.31, -242.23, -3602.4)" xlink:href="#radial-gradient-2"/><radialGradient id="Degradado_sin_nombre_34-3" cx="-844.98" cy="13.79" r="2.17" gradientTransform="matrix(0.71, -0.46, 1.4, 1.83, 828.4, 4.92)" xlink:href="#radial-gradient-2"/><radialGradient id="radial-gradient-19" cx="47.26" cy="423.76" r="9.89" gradientTransform="translate(384.56 71.8) rotate(30)" gradientUnits="userSpaceOnUse"><stop offset="0" stop-color="#d4f6ff"/><stop offset="0.2" stop-color="#d9f7ff"/><stop offset="1" stop-color="#89c0f5"/></radialGradient><radialGradient id="radial-gradient-20" cx="1672.63" cy="-1596.71" r="1.55" gradientTransform="matrix(-1.3, 0.58, -0.75, -1.95, 1204.38, -3614.57)" xlink:href="#radial-gradient-2"/><radialGradient id="radial-gradient-21" cx="62.24" cy="415.11" r="9.89" xlink:href="#radial-gradient-19"/><radialGradient id="radial-gradient-22" cx="1661.29" cy="-1600.09" r="1.55" gradientTransform="matrix(-1.3, 0.58, -0.75, -1.95, 1204.38, -3614.57)" xlink:href="#radial-gradient-2"/><radialGradient id="radial-gradient-23" cx="77.21" cy="406.46" r="9.89" xlink:href="#radial-gradient-19"/><radialGradient id="radial-gradient-24" cx="1649.96" cy="-1603.46" r="1.55" gradientTransform="matrix(-1.3, 0.58, -0.75, -1.95, 1204.38, -3614.57)" xlink:href="#radial-gradient-2"/><radialGradient id="radial-gradient-25" cx="92.19" cy="397.81" r="9.89" xlink:href="#radial-gradient-19"/><radialGradient id="radial-gradient-26" cx="1638.62" cy="-1606.84" r="1.55" gradientTransform="matrix(-1.3, 0.58, -0.75, -1.95, 1204.38, -3614.57)" xlink:href="#radial-gradient-2"/></defs><title>sunny</title><g class="cls-1"><g id="OBJECTS"><path class="cls-2" d="M214.49,410.28a23.58,23.58,0,1,0,23.58-23.57A23.57,23.57,0,0,0,214.49,410.28Z" transform="translate(-200.6 -372.82)"/><path class="cls-3" d="M241.66,407.86c-6-4.87-8.35-12.29-5.24-16.57s10.51-3.8,16.52,1.07,8.35,12.29,5.23,16.57S247.66,412.73,241.66,407.86Z" transform="translate(-200.6 -372.82)"/><path class="cls-4" d="M217.23,415.5c.79-2.61,4.84-1.53,9,2.41s7,9.25,6.16,11.86-4.83,1.53-9-2.41S216.43,418.1,217.23,415.5Z" transform="translate(-200.6 -372.82)"/><path class="cls-5" d="M240.93,379.73a2.86,2.86,0,0,1-2.86,2.87h0a2.86,2.86,0,0,1-2.86-2.87v-4.05a2.86,2.86,0,0,1,2.86-2.86h0a2.86,2.86,0,0,1,2.86,2.86Z" transform="translate(-200.6 -372.82)"/><path class="cls-6" d="M218.49,386.66a2.88,2.88,0,0,1,0,4h0a2.88,2.88,0,0,1-4.05,0l-2.87-2.87a2.88,2.88,0,0,1,0-4h0a2.86,2.86,0,0,1,4.05,0Z" transform="translate(-200.6 -372.82)"/><path class="cls-7" d="M207.52,407.43a2.86,2.86,0,0,1,2.86,2.86h0a2.86,2.86,0,0,1-2.86,2.86h-4.06a2.86,2.86,0,0,1-2.86-2.86h0a2.86,2.86,0,0,1,2.86-2.86Z" transform="translate(-200.6 -372.82)"/><path class="cls-8" d="M214.44,429.87a2.86,2.86,0,0,1,4.05,0h0a2.85,2.85,0,0,1,0,4l-2.87,2.87a2.86,2.86,0,0,1-4.05,0h0a2.86,2.86,0,0,1,0-4Z" transform="translate(-200.6 -372.82)"/><path class="cls-9" d="M235.21,440.84a2.86,2.86,0,0,1,2.86-2.86h0a2.86,2.86,0,0,1,2.86,2.86v4.05a2.87,2.87,0,0,1-2.86,2.87h0a2.86,2.86,0,0,1-2.86-2.87Z" transform="translate(-200.6 -372.82)"/><path class="cls-10" d="M257.65,433.91a2.85,2.85,0,0,1,0-4h0a2.85,2.85,0,0,1,4,0l2.87,2.86a2.86,2.86,0,0,1,0,4h0a2.85,2.85,0,0,1-4,0Z" transform="translate(-200.6 -372.82)"/><path class="cls-11" d="M268.62,413.14a2.85,2.85,0,0,1-2.86-2.85h0a2.85,2.85,0,0,1,2.86-2.86h4.06a2.86,2.86,0,0,1,2.86,2.85h0a2.85,2.85,0,0,1-2.86,2.86Z" transform="translate(-200.6 -372.82)"/><path class="cls-12" d="M261.69,390.7a2.85,2.85,0,0,1-4,0h0a2.85,2.85,0,0,1,0-4l2.87-2.87a2.85,2.85,0,0,1,4,0h0a2.86,2.86,0,0,1,0,4Z" transform="translate(-200.6 -372.82)"/><path class="cls-13" d="M217.44,415.12a16.33,16.33,0,0,1,15.86,12.47,10.61,10.61,0,1,1,4.61,20.17H217.44a16.32,16.32,0,0,1,0-32.64Z" transform="translate(-200.6 -372.82)"/><path class="cls-14" d="M217.44,415.12a16.33,16.33,0,0,1,15.86,12.47,10.61,10.61,0,1,1,4.61,20.17H217.44a16.32,16.32,0,0,1,0-32.64Z" transform="translate(-200.6 -372.82)"/><path class="cls-15" d="M215.35,430.71c4.25-3.44,5.91-8.69,3.71-11.72s-7.44-2.69-11.69.76-5.9,8.69-3.7,11.72S211.1,434.16,215.35,430.71Z" transform="translate(-200.6 -372.82)"/><path class="cls-16" d="M236.73,435.19c2.33-1.89,3.25-4.78,2-6.44s-4.09-1.48-6.43.41-3.24,4.78-2,6.45S234.4,437.08,236.73,435.19Z" transform="translate(-200.6 -372.82)"/><path class="cls-17" d="M241.91,439.32c2.57-2.6,5.22-3.62,5.93-2.27s-.81,4.54-3.38,7.14-5.22,3.61-5.92,2.26S239.34,441.92,241.91,439.32Z" transform="translate(-200.6 -372.82)"/><path class="cls-18" d="M271.85,396.33a12.93,12.93,0,0,0-12.57,9.89,8.42,8.42,0,1,0-3.66,16h16.23a12.94,12.94,0,0,0,0-25.88Z" transform="translate(-200.6 -372.82)"/><path class="cls-19" d="M271.85,396.33a12.93,12.93,0,0,0-12.57,9.89,8.42,8.42,0,1,0-3.66,16h16.23a12.94,12.94,0,0,0,0-25.88Z" transform="translate(-200.6 -372.82)"/><path class="cls-20" d="M273.51,408.69c-3.37-2.73-4.69-6.89-2.94-9.29s5.89-2.14,9.27.6,4.68,6.89,2.93,9.29S276.88,411.42,273.51,408.69Z" transform="translate(-200.6 -372.82)"/><path class="cls-21" d="M256.55,412.24c-1.85-1.5-2.57-3.79-1.61-5.11s3.24-1.17,5.09.33,2.57,3.79,1.62,5.11S258.41,413.74,256.55,412.24Z" transform="translate(-200.6 -372.82)"/><path class="cls-22" d="M252.45,415.52c-2-2.06-4.14-2.87-4.7-1.8s.63,3.59,2.67,5.66,4.14,2.86,4.7,1.8S254.48,417.58,252.45,415.52Z" transform="translate(-200.6 -372.82)"/><path class="cls-23" d="M219.11,463.34a4.11,4.11,0,0,1-7.12-4.11c1.13-2,8.15-5.91,8.15-5.91S220.24,461.37,219.11,463.34Z" transform="translate(-200.6 -372.82)"/><path class="cls-24" d="M212.11,462.65c-.64-1.66-.25-3.41.86-3.91s2.54.45,3.18,2.12.25,3.42-.87,3.91S212.75,464.32,212.11,462.65Z" transform="translate(-200.6 -372.82)"/><path class="cls-25" d="M236.4,463.34a4.11,4.11,0,0,1-7.12-4.11c1.14-2,8.16-5.91,8.16-5.91S237.54,461.37,236.4,463.34Z" transform="translate(-200.6 -372.82)"/><path class="cls-26" d="M229.4,462.65c-.63-1.66-.25-3.41.87-3.91s2.54.45,3.17,2.12.25,3.42-.86,3.91S230,464.32,229.4,462.65Z" transform="translate(-200.6 -372.82)"/><path class="cls-27" d="M253.7,463.34a4.11,4.11,0,0,1-7.12-4.11c1.14-2,8.16-5.91,8.16-5.91S254.84,461.37,253.7,463.34Z" transform="translate(-200.6 -372.82)"/><path class="cls-28" d="M246.7,462.65c-.64-1.66-.25-3.41.87-3.91s2.53.45,3.17,2.12.25,3.42-.86,3.91S247.34,464.32,246.7,462.65Z" transform="translate(-200.6 -372.82)"/><path class="cls-29" d="M271,463.34a4.11,4.11,0,0,1-7.12-4.11c1.13-2,8.15-5.91,8.15-5.91S272.13,461.37,271,463.34Z" transform="translate(-200.6 -372.82)"/><path class="cls-30" d="M264,462.65c-.64-1.66-.25-3.41.86-3.91s2.54.45,3.18,2.12.25,3.42-.87,3.91S264.63,464.32,264,462.65Z" transform="translate(-200.6 -372.82)"/></g></g></svg>