<svg xmlns="http://www.w3.org/2000/svg" viewBox="0 0 500 372.06"><defs><style>.cls-1{fill:#ebebeb;}.cls-2{fill:#f5f5f5;}.cls-3{fill:#e0e0e0;}.cls-4{fill:#fafafa;}.cls-5{fill:#e6e6e6;}.cls-15,.cls-17,.cls-18,.cls-6,.cls-8{fill:#fff;}.cls-7{fill:#407bff;}.cls-13,.cls-16,.cls-8{opacity:0.2;}.cls-19,.cls-20,.cls-21,.cls-22,.cls-9{fill:none;}.cls-21,.cls-9{stroke:#407bff;}.cls-19,.cls-20,.cls-9{stroke-miterlimit:10;}.cls-10{fill:#7f3e3b;}.cls-11{fill:#263238;}.cls-12,.cls-18{opacity:0.1;}.cls-13{isolation:isolate;}.cls-14{fill:#630f0f;}.cls-15{opacity:0.5;}.cls-17{opacity:0.4;}.cls-19,.cls-20{stroke:#263238;}.cls-20{stroke-width:2px;}.cls-21{stroke-linecap:round;stroke-linejoin:round;stroke-width:4px;}</style></defs><title>umbrella</title><g id="Background_Complete" data-name="Background Complete"><rect class="cls-1" x="416.78" y="343.54" width="33.12" height="0.25"/><rect class="cls-1" x="322.53" y="346.26" width="8.69" height="0.25"/><rect class="cls-1" x="396.59" y="334.26" width="19.19" height="0.25"/><rect class="cls-1" x="52.46" y="335.94" width="43.19" height="0.25"/><rect class="cls-1" x="104.56" y="335.94" width="6.33" height="0.25"/><rect class="cls-1" x="178.18" y="348.4" width="0.25" height="93.68" transform="translate(-217.74 516.79) rotate(-89.74)"/><path class="cls-1" d="M238.4,337.8H45.3a5.71,5.71,0,0,1-5.71-5.71V60.66A5.71,5.71,0,0,1,45.3,55H238.4a5.71,5.71,0,0,1,5.71,5.71V332.09A5.71,5.71,0,0,1,238.4,337.8ZM45.3,55.2a5.47,5.47,0,0,0-5.46,5.46V332.09a5.47,5.47,0,0,0,5.46,5.46H238.4a5.47,5.47,0,0,0,5.46-5.46V60.66a5.47,5.47,0,0,0-5.46-5.46Z" transform="translate(0 -54.95)"/><path class="cls-1" d="M454.7,337.8H261.6a5.71,5.71,0,0,1-5.71-5.71V60.66A5.71,5.71,0,0,1,261.6,55H454.7a5.71,5.71,0,0,1,5.71,5.71V332.09A5.71,5.71,0,0,1,454.7,337.8ZM261.6,55.2a5.47,5.47,0,0,0-5.46,5.46V332.09a5.47,5.47,0,0,0,5.46,5.46H454.7a5.47,5.47,0,0,0,5.46-5.46V60.66a5.47,5.47,0,0,0-5.46-5.46Z" transform="translate(0 -54.95)"/><rect class="cls-1" y="327.45" width="500" height="0.25"/><path class="cls-2" d="M131.35,144.09l34.91-1,1.69.71a33.35,33.35,0,0,0,20.42,1.84,72.62,72.62,0,0,1,23.08-1.72l2.32.22s15.8-6.3,13.44-22.13-26.13-2.14-26.13-2.14,6.85-22.29-16.29-15.56-25,28.73-25,28.73S142.25,125.12,131.35,144.09Z" transform="translate(0 -54.95)"/><path class="cls-2" d="M60.5,116.13l28.14-.83,1.36.58a27,27,0,0,0,16.48,1.48,58.84,58.84,0,0,1,18.6-1.39l1.88.18s12.74-5.08,10.83-17.84-21.07-1.73-21.07-1.73,5.53-18-13.13-12.54S83.44,107.2,83.44,107.2,69.29,100.84,60.5,116.13Z" transform="translate(0 -54.95)"/><path class="cls-2" d="M304.23,110.25l30.66-.17a5.53,5.53,0,0,1,3.06.9h0c9.64,9.28,20.85,4,25.83.82a11.94,11.94,0,0,1,6.34-1.92l34.17-.19c12.82-.07,15.81-18,3.68-22.18l-.47-.15c13.33-11.23-16.18-34.59-47.92-1.84,2.43-10.88-25.92-6.8-34.51,8.07C321.93,83.88,295,100.93,304.23,110.25Z" transform="translate(0 -54.95)"/><rect class="cls-3" x="119.41" y="192.6" width="33.86" height="63.91"/><rect class="cls-4" x="145.37" y="198.1" width="5.66" height="5.66"/><rect class="cls-4" x="121.66" y="206.64" width="5.66" height="5.66"/><rect class="cls-4" x="137.47" y="206.64" width="5.66" height="5.66"/><rect class="cls-4" x="145.37" y="206.64" width="5.66" height="5.66"/><rect class="cls-4" x="129.56" y="215.18" width="5.66" height="5.66"/><rect class="cls-4" x="121.66" y="223.71" width="5.66" height="5.66"/><rect class="cls-4" x="137.47" y="223.71" width="5.66" height="5.66"/><rect class="cls-4" x="145.37" y="223.71" width="5.66" height="5.66"/><rect class="cls-4" x="145.37" y="287.37" width="5.66" height="5.66" transform="translate(4.17 -57.05) rotate(0.82)"/><rect class="cls-4" x="129.56" y="240.78" width="5.66" height="5.66"/><rect class="cls-4" x="137.47" y="240.78" width="5.66" height="5.66"/><rect class="cls-3" x="90.34" y="218.97" width="28.79" height="67.57"/><rect class="cls-4" x="112.41" y="223.64" width="4.81" height="4.81"/><rect class="cls-4" x="92.25" y="230.9" width="4.81" height="4.81"/><rect class="cls-4" x="105.69" y="230.9" width="4.81" height="4.81"/><rect class="cls-4" x="112.41" y="230.9" width="4.81" height="4.81"/><rect class="cls-4" x="98.97" y="238.16" width="4.81" height="4.81"/><rect class="cls-4" x="92.25" y="245.41" width="4.81" height="4.81"/><rect class="cls-4" x="105.69" y="245.41" width="4.81" height="4.81"/><rect class="cls-4" x="112.41" y="245.41" width="4.81" height="4.81"/><rect class="cls-4" x="112.4" y="307.77" width="4.81" height="4.81" transform="translate(4.45 -56.56) rotate(0.82)"/><rect class="cls-4" x="98.97" y="259.93" width="4.81" height="4.81"/><rect class="cls-4" x="105.69" y="259.93" width="4.81" height="4.81"/><polygon class="cls-3" points="396.95 272.96 375.8 272.96 375.8 200.71 396.95 209.3 396.95 272.96"/><rect class="cls-4" x="382.55" y="208.18" width="3.19" height="3.19"/><rect class="cls-4" x="378.1" y="212.99" width="3.19" height="3.19"/><rect class="cls-4" x="378.1" y="217.8" width="3.19" height="3.19"/><rect class="cls-4" x="382.55" y="217.8" width="3.19" height="3.19"/><rect class="cls-4" x="387" y="217.8" width="3.19" height="3.19"/><rect class="cls-4" x="378.1" y="227.42" width="3.19" height="3.19"/><rect class="cls-4" x="387" y="227.42" width="3.19" height="3.19"/><rect class="cls-4" x="382.55" y="232.23" width="3.19" height="3.19"/><rect class="cls-4" x="378.1" y="237.04" width="3.19" height="3.19"/><rect class="cls-4" x="387" y="237.04" width="3.19" height="3.19"/><rect class="cls-4" x="391.46" y="237.04" width="3.19" height="3.19"/><rect class="cls-4" x="382.55" y="241.85" width="3.19" height="3.19"/><rect class="cls-4" x="378.1" y="246.65" width="3.19" height="3.19"/><rect class="cls-4" x="382.55" y="246.65" width="3.19" height="3.19"/><rect class="cls-4" x="391.46" y="246.65" width="3.19" height="3.19"/><rect class="cls-4" x="378.1" y="306.32" width="3.19" height="3.19" transform="translate(4.45 -60.36) rotate(0.82)"/><rect class="cls-4" x="387" y="306.45" width="3.19" height="3.19" transform="translate(4.45 -60.49) rotate(0.82)"/><rect class="cls-4" x="391.46" y="306.51" width="3.19" height="3.19" transform="translate(4.46 -60.55) rotate(0.82)"/><rect class="cls-4" x="382.55" y="256.27" width="3.19" height="3.19"/><polygon class="cls-3" points="422.64 228.49 422.64 224.56 414.67 224.56 414.67 228.49 401.45 228.49 401.45 297.68 424.56 297.68 424.56 228.49 422.64 228.49"/><rect class="cls-4" x="408.92" y="233.48" width="3.41" height="3.41"/><rect class="cls-4" x="413.68" y="233.48" width="3.41" height="3.41"/><rect class="cls-4" x="404.15" y="238.62" width="3.41" height="3.41"/><rect class="cls-4" x="408.92" y="238.62" width="3.41" height="3.41"/><rect class="cls-4" x="418.45" y="238.62" width="3.41" height="3.41"/><rect class="cls-4" x="404.15" y="243.77" width="3.41" height="3.41"/><rect class="cls-4" x="413.68" y="243.77" width="3.41" height="3.41"/><rect class="cls-4" x="418.45" y="243.77" width="3.41" height="3.41"/><rect class="cls-4" x="404.15" y="254.07" width="3.41" height="3.41"/><rect class="cls-4" x="413.68" y="254.07" width="3.41" height="3.41"/><rect class="cls-4" x="404.15" y="259.22" width="3.41" height="3.41"/><rect class="cls-4" x="408.92" y="259.22" width="3.41" height="3.41"/><rect class="cls-4" x="418.45" y="259.22" width="3.41" height="3.41"/><rect class="cls-4" x="418.45" y="264.37" width="3.41" height="3.41"/><rect class="cls-4" x="404.15" y="269.52" width="3.41" height="3.41"/><rect class="cls-4" x="408.92" y="269.52" width="3.41" height="3.41"/><rect class="cls-4" x="413.68" y="329.65" width="3.41" height="3.41" transform="translate(4.79 -60.87) rotate(0.82)"/><rect class="cls-4" x="418.45" y="329.72" width="3.41" height="3.41" transform="translate(4.79 -60.94) rotate(0.82)"/><rect class="cls-4" x="404.15" y="279.81" width="3.41" height="3.41"/><path class="cls-2" d="M60.6,365.67,161,265.32a126,126,0,0,1,178.2,0L439.52,365.67Z" transform="translate(0 -54.95)"/><path class="cls-3" d="M70.16,323.34l.64-.19,2.78,4.65.63-5.44.61-.27a44.42,44.42,0,0,0-.3,6.43,33.71,33.71,0,0,0,1.87,5.06S78.91,331,79.25,330c.68-2.11-.73-8.24-.73-8.24l.82.05,1.49,6.35a13.23,13.23,0,0,0,1.82-2.48c.42-1.08.16-4.37.16-4.37l.83-.25.14,4.23,5.64-2.51.42.4a46.42,46.42,0,0,0-5.92,3.5A30.69,30.69,0,0,0,78,335.46C75.8,341,74.67,358,74.67,358H69.16s5.11-17.54,5.19-23.29a31.7,31.7,0,0,0-1.14-5.46Z" transform="translate(0 -54.95)"/><path class="cls-1" d="M91.15,311.49h0a9.51,9.51,0,0,0,1.3-3.32,6.62,6.62,0,0,0-6.68-8.1A10,10,0,0,0,77.43,305a10.34,10.34,0,0,0-6.85,6.53h-.09a10.09,10.09,0,0,0-9.53,8.1,6.61,6.61,0,0,0,6.67,8.1,10,10,0,0,0,8-4.41,5,5,0,0,0,2.22.5,6.45,6.45,0,0,0,3.81-1.31,6.52,6.52,0,0,0,6.65,5.18,10.07,10.07,0,0,0,9.52-8.1A6.6,6.6,0,0,0,91.15,311.49Z" transform="translate(0 -54.95)"/><path class="cls-3" d="M359,266.63l-.57-.18L354,271.1l1.3-5.44-.53-.27a50.57,50.57,0,0,1-2,6.43,51.6,51.6,0,0,1-3.66,5.06s-1.61-2.58-1.58-3.64c.07-2.1,3.64-8.23,3.64-8.23l-.84,0-3.73,6.36a8.48,8.48,0,0,1-.94-2.49c0-1.08,1.38-4.37,1.38-4.37l-.74-.25-1.64,4.24L339.93,266l-.57.4s3.79,2.36,4.69,3.5c1.39,1.78,2.72,6.43,2.82,8.84.24,5.51-4.64,22.56-4.64,22.56h5.51s1.08-17.54,3-23.3a45.76,45.76,0,0,1,3.06-5.46Z" transform="translate(0 -54.95)"/><path class="cls-1" d="M342.16,254.78h0a7.49,7.49,0,0,1-.13-3.32,10.09,10.09,0,0,1,9.53-8.1,6.54,6.54,0,0,1,6.59,4.93,6.49,6.49,0,0,1,4.54,6.54h.09a6.6,6.6,0,0,1,6.67,8.1,10.08,10.08,0,0,1-9.53,8.1,6.54,6.54,0,0,1-6.43-4.42,6,6,0,0,1-2.4.51,4.65,4.65,0,0,1-3.34-1.32A10.07,10.07,0,0,1,339.3,271a6.61,6.61,0,0,1-6.67-8.1A10.07,10.07,0,0,1,342.16,254.78Z" transform="translate(0 -54.95)"/><path class="cls-3" d="M437.09,325.31l-.57-.19-4.42,4.65,1.29-5.44-.52-.27a51,51,0,0,1-2,6.43,51.91,51.91,0,0,1-3.65,5.06s-1.61-2.58-1.58-3.63c.06-2.11,3.63-8.24,3.63-8.24l-.83.05-3.73,6.35a8.33,8.33,0,0,1-.95-2.48c0-1.08,1.38-4.37,1.38-4.37l-.74-.25-1.63,4.23-4.75-2.51-.56.39s3.78,2.36,4.68,3.51c1.39,1.78,2.72,6.42,2.83,8.83.23,5.51-4.65,22.56-4.65,22.56h5.51s1.08-17.54,3-23.29a43.61,43.61,0,0,1,3.06-5.46Z" transform="translate(0 -54.95)"/><path class="cls-1" d="M420.28,313.45h0a7.6,7.6,0,0,1-.13-3.31,10.09,10.09,0,0,1,9.53-8.1,6.52,6.52,0,0,1,6.59,4.93,6.46,6.46,0,0,1,4.54,6.53h.1a6.61,6.61,0,0,1,6.67,8.1,10.08,10.08,0,0,1-9.53,8.1,6.53,6.53,0,0,1-6.44-4.41,6.17,6.17,0,0,1-2.39.5,4.65,4.65,0,0,1-3.35-1.31,10.06,10.06,0,0,1-8.47,5.18,6.62,6.62,0,0,1-6.67-8.11A10.09,10.09,0,0,1,420.28,313.45Z" transform="translate(0 -54.95)"/><path class="cls-3" d="M254.54,207.33l-.57-.18-4.43,4.65,1.29-5.44-.52-.27a49.85,49.85,0,0,1-2,6.43,50.25,50.25,0,0,1-3.65,5.06s-1.61-2.58-1.58-3.64c.07-2.11,3.64-8.23,3.64-8.23l-.84,0-3.73,6.35a8.61,8.61,0,0,1-1-2.48c0-1.08,1.39-4.37,1.39-4.37l-.74-.25-1.64,4.23-4.75-2.51-.56.4s3.79,2.35,4.68,3.5c1.39,1.78,2.73,6.43,2.83,8.83C242.68,225,237.8,242,237.8,242h5.5s1.08-17.54,3-23.3a45.76,45.76,0,0,1,3.06-5.46Z" transform="translate(0 -54.95)"/><path class="cls-1" d="M237.72,195.48h0a7.65,7.65,0,0,1-.12-3.32,10.08,10.08,0,0,1,9.53-8.1,6.51,6.51,0,0,1,6.58,4.93,6.5,6.5,0,0,1,4.55,6.54h.09a6.62,6.62,0,0,1,6.67,8.11,10.08,10.08,0,0,1-9.53,8.1,6.54,6.54,0,0,1-6.43-4.42,6.23,6.23,0,0,1-2.4.51,4.67,4.67,0,0,1-3.35-1.32,10,10,0,0,1-8.46,5.18,6.62,6.62,0,0,1-6.68-8.1A10.08,10.08,0,0,1,237.72,195.48Z" transform="translate(0 -54.95)"/><path class="cls-1" d="M297.32,267.27c-6.35-8.21-15.64-11-23.36-8a5.2,5.2,0,0,1-6-1.14c-7.2-8.39-21.1-9.39-28.34-1.47a20.7,20.7,0,0,0-2.17,2.84,12.43,12.43,0,0,1-4.16,4,13.3,13.3,0,0,0-3.1,2.53,17.09,17.09,0,0,0-4.15,9.31,3.19,3.19,0,0,1-1.88,2.45,13,13,0,0,0-4.59,3.26c-5.86,6.41-5.79,17.83.16,25.51,5.3,6.84,13.48,8.41,19.34,4.14a1.21,1.21,0,0,1,1.55,0c3.15,2.94,7.42,3,10.21-.24h0a1.28,1.28,0,0,1,1.84-.22c3.2,3.39,7.75,3.58,10.67.22a8.8,8.8,0,0,0,1.3-2,1.42,1.42,0,0,1,1.7-.79,6.47,6.47,0,0,0,6.78-1.24,1.27,1.27,0,0,1,1.44-.23c7.7,4.54,16.82,3.66,23-3.09C305.8,294.16,305.7,278.08,297.32,267.27Z" transform="translate(0 -54.95)"/><path class="cls-3" d="M235.45,314.51l5.82,6.46c-2.16,9.11-6.32,30.1-6.32,30.1l-5.06,14.67,21.76.21s1.2-12.4,1.32-13.07.09-24.42.09-24.42l.86-13.29,11.84-3.43,3.1-5.93,9.08-4.67,5.13-6.2-1.49-.38-5.47,5.73-5.4,1.13,3.16-5.28h-2.48L263,308.36,254.78,310l4.06-17.16c-6.9,3-8.07-2-8.07-2s-6.71,23.09-8.1,25.72l-3.75-2.07-3.22-7.05h-2Z" transform="translate(0 -54.95)"/><rect class="cls-5" x="46.52" y="311.39" width="406.96" height="15.56"/><rect class="cls-6" x="61.58" y="311.39" width="1" height="16.31"/><rect class="cls-6" x="155.56" y="311.39" width="1" height="16.31"/><rect class="cls-6" x="249.54" y="311.39" width="1" height="16.31"/><rect class="cls-6" x="343.52" y="311.39" width="1" height="16.31"/><rect class="cls-6" x="437.5" y="311.39" width="1" height="16.31"/></g><g id="Shadow"><ellipse id="_Path_" data-name="&lt;Path&gt;" class="cls-2" cx="250" cy="360.74" rx="193.89" ry="11.32"/></g><g id="Leaves"><path class="cls-7" d="M443.64,267.48c-.11.15-.24.31-.39.49l-.24.27c-.17.2-.36.4-.57.62l-.34.33-.43.41-.46.41-.5.42-.49.39c-.19.15-.39.3-.61.45l-.58.4-.63.4c-.21.13-.43.25-.65.37s-.45.26-.68.37l-.68.31-.72.3a2.54,2.54,0,0,0-.41-.52,2,2,0,0,0-2.77-.24,1.68,1.68,0,0,0-.36,1.58,9.87,9.87,0,0,1-1.22,0l-.33,0-.38,0a3.31,3.31,0,0,1-.55-.07,2.57,2.57,0,0,1-.4-.08,5.6,5.6,0,0,1-.59-.12l-.65-.2c-.23-.08-.46-.16-.7-.26a12.7,12.7,0,0,1-2.46-1.38q-.62-.45-1.23-1a19.29,19.29,0,0,1-2-2.15c-.26-.32-.53-.66-.79-1a2.09,2.09,0,0,1,.27-3.14,9,9,0,0,1,1.4-1,11.12,11.12,0,0,1,5.23.52c2.83.93,5.39,2.58,8.23,3.48,2.46.77,5.38.88,7.51-.46A1.16,1.16,0,0,1,443.64,267.48Z" transform="translate(0 -54.95)"/><path class="cls-7" d="M422.24,267.71l-4.65,0c-1.15-.38-.9-1.58,0-1.6C419,266.83,422.17,266.76,422.24,267.71Z" transform="translate(0 -54.95)"/><path class="cls-8" d="M443.64,267.48c-.11.15-.24.31-.39.49l-.24.27c-.17.2-.36.4-.57.62l-.34.33-.43.41-.46.41-.5.42-.49.39c-.19.15-.39.3-.61.45l-.58.4-.63.4c-.21.13-.43.25-.65.37s-.45.26-.68.37l-.68.31-.72.3a2.54,2.54,0,0,0-.41-.52,2,2,0,0,0-2.77-.24,1.68,1.68,0,0,0-.36,1.58,9.87,9.87,0,0,1-1.22,0l-.33,0-.38,0a3.31,3.31,0,0,1-.55-.07,2.57,2.57,0,0,1-.4-.08,5.6,5.6,0,0,1-.59-.12l-.65-.2c-.23-.08-.46-.16-.7-.26a12.7,12.7,0,0,1-2.46-1.38q-.62-.45-1.23-1a18.41,18.41,0,0,1-2-2.15c-.26-.32-.53-.66-.79-1a2.09,2.09,0,0,1,.27-3.14,9,9,0,0,1,1.4-1,11.12,11.12,0,0,1,5.23.52c2.83.93,5.39,2.58,8.23,3.48,2.46.77,5.38.88,7.51-.46A1.16,1.16,0,0,1,443.64,267.48Z" transform="translate(0 -54.95)"/><path class="cls-7" d="M337.42,288.44h.2a7.09,7.09,0,0,0,4.31,3.87c2.14.82,4.47,1,6.63,1.83a8.67,8.67,0,0,1,3.4,2.19,6.74,6.74,0,0,1,.37,1.28,1.62,1.62,0,0,1-1.34,2C339.15,302.94,337.32,291.37,337.42,288.44Z" transform="translate(0 -54.95)"/><path class="cls-7" d="M350.22,298.81l2.83,2.2c.87.32,1.29-.52.77-.95C352.6,299.83,350.72,298.27,350.22,298.81Z" transform="translate(0 -54.95)"/><path class="cls-8" d="M337.42,288.44h.2a7.09,7.09,0,0,0,4.31,3.87c2.14.82,4.47,1,6.63,1.83a8.67,8.67,0,0,1,3.4,2.19,6.74,6.74,0,0,1,.37,1.28,1.62,1.62,0,0,1-1.34,2C339.15,302.94,337.32,291.37,337.42,288.44Z" transform="translate(0 -54.95)"/><path class="cls-7" d="M249.14,123.44l.15-.12a7.11,7.11,0,0,1,.85-5.7c1.13-2,2.78-3.63,3.93-5.6a8.46,8.46,0,0,0,1.22-3.84,6.69,6.69,0,0,0-.52-1.21,1.61,1.61,0,0,0-2.31-.7C241.28,111.23,247.21,121.26,249.14,123.44Z" transform="translate(0 -54.95)"/><path class="cls-7" d="M252.38,107.39l.78-3.48c.47-.8,1.33-.42,1.2.24C253.56,105.1,253.11,107.48,252.38,107.39Z" transform="translate(0 -54.95)"/><path class="cls-8" d="M249.14,123.44l.15-.12a7.11,7.11,0,0,1,.85-5.7c1.13-2,2.78-3.63,3.93-5.6a8.46,8.46,0,0,0,1.22-3.84,6.69,6.69,0,0,0-.52-1.21,1.61,1.61,0,0,0-2.31-.7C241.28,111.23,247.21,121.26,249.14,123.44Z" transform="translate(0 -54.95)"/><path class="cls-7" d="M397.18,247l.14.07a5.53,5.53,0,0,1,4.29-1.4c1.79.09,3.52.67,5.3.78A6.6,6.6,0,0,0,410,246a4.73,4.73,0,0,0,.67-.79,1.26,1.26,0,0,0-.32-1.86C403,237.26,398,244.93,397.18,247Z" transform="translate(0 -54.95)"/><path class="cls-7" d="M409.57,243.69l2.71-.68c.72.05.76.78.25.93C411.59,243.71,409.76,244.23,409.57,243.69Z" transform="translate(0 -54.95)"/><path class="cls-8" d="M397.18,247l.14.07a5.53,5.53,0,0,1,4.29-1.4c1.79.09,3.52.67,5.3.78A6.6,6.6,0,0,0,410,246a4.73,4.73,0,0,0,.67-.79,1.26,1.26,0,0,0-.32-1.86C403,237.26,398,244.93,397.18,247Z" transform="translate(0 -54.95)"/><path class="cls-7" d="M396.16,156.91l.14.07a5.56,5.56,0,0,1,4.3-1.4c1.78.09,3.51.67,5.3.78a6.56,6.56,0,0,0,3.11-.49,5.17,5.17,0,0,0,.67-.79,1.26,1.26,0,0,0-.32-1.86C402,147.13,397,154.8,396.16,156.91Z" transform="translate(0 -54.95)"/><path class="cls-7" d="M408.55,153.56l2.71-.68c.73.05.76.78.25.93" transform="translate(0 -54.95)"/><path class="cls-8" d="M396.16,156.91l.14.07a5.56,5.56,0,0,1,4.3-1.4c1.78.09,3.51.67,5.3.78a6.56,6.56,0,0,0,3.11-.49,5.17,5.17,0,0,0,.67-.79,1.26,1.26,0,0,0-.32-1.86C402,147.13,397,154.8,396.16,156.91Z" transform="translate(0 -54.95)"/><path class="cls-7" d="M284.49,97.18l-.2.06a7.34,7.34,0,0,0-5.3-2.86c-2.36-.3-4.77,0-7.13-.23a8.7,8.7,0,0,1-4-1.38,6.57,6.57,0,0,1-.68-1.19,1.68,1.68,0,0,1,.86-2.37C279.2,83,283.88,94.2,284.49,97.18Z" transform="translate(0 -54.95)"/><path class="cls-7" d="M269,89.85l-3.4-1.53c-1-.11-1.18.84-.55,1.15C266.38,89.4,268.66,90.51,269,89.85Z" transform="translate(0 -54.95)"/><path class="cls-8" d="M284.49,97.18l-.2.06a7.34,7.34,0,0,0-5.3-2.86c-2.36-.3-4.77,0-7.13-.23a8.7,8.7,0,0,1-4-1.38,6.57,6.57,0,0,1-.68-1.19,1.68,1.68,0,0,1,.86-2.37C279.2,83,283.88,94.2,284.49,97.18Z" transform="translate(0 -54.95)"/></g><g id="Wind"><path class="cls-9" d="M220.38,298.7a67.87,67.87,0,0,1,18.87-5.6c11.91-1.51,25.23,2.11,32.09,11.95,3.92,5.64,5.49,12.87,10.37,17.7,7.56,7.49,19.67,5.26,30.28,4.46C354.78,324,418,287,421.68,277.45" transform="translate(0 -54.95)"/><path class="cls-9" d="M205.85,306c2.49-1.32,5-2.65,7.51-3.92" transform="translate(0 -54.95)"/><path class="cls-9" d="M82.1,135.63c7.87-4.18,16-8.44,24.82-9.55s18.74,1.57,23.83,8.88c2.92,4.19,4.09,9.56,7.71,13.15,5.62,5.56,14.74,4.82,22.5,3.31a248.58,248.58,0,0,0,64.81-22.17" transform="translate(0 -54.95)"/><path class="cls-9" d="M372.21,292.79c21.33-8.83,41.2-23,52.72-43" transform="translate(0 -54.95)"/><path class="cls-9" d="M178.62,159.4a223.15,223.15,0,0,0,68-28.59" transform="translate(0 -54.95)"/><path class="cls-9" d="M204.07,164.31a97.61,97.61,0,0,0,39.2-15.69" transform="translate(0 -54.95)"/></g><g id="Character"><path class="cls-10" d="M107.81,195.25a6.79,6.79,0,0,0,4.86,1.78c2.37-.11,2.82-2.4,1.53-4.25-1.15-1.65-3.78-3.6-5.86-2.59S106.2,193.74,107.81,195.25Z" transform="translate(0 -54.95)"/><path class="cls-10" d="M165,228.16l8.25-1.56,5.88-4.42a2.57,2.57,0,0,0,1-2.1l0-1.59a2.61,2.61,0,0,0-2.88-2.55l-2.54.26a2.6,2.6,0,0,0-2,1.32l-2.59,4.71-7.21.68Z" transform="translate(0 -54.95)"/><path class="cls-11" d="M132.62,210.14c-1.23,2.94,0,6.45,2.14,8.8s13.19,9.73,17.09,10.25c3.7.5,13.19-.62,12.78-.57-.8.11,4-.41,4.83-.54-.49-2-1-4.21-1.52-6.18-4.16.06-10.71-.09-14.78-1,0,0-9.3-9.61-15.23-12.42a5.51,5.51,0,0,0-2.84-.72C134.11,207.87,133,209.23,132.62,210.14Z" transform="translate(0 -54.95)"/><path class="cls-12" d="M132.62,210.14c-1.23,2.94,0,6.45,2.14,8.8s13.19,9.73,17.09,10.25c3.7.5,13.19-.62,12.78-.57-.8.11,4-.41,4.83-.54-.49-2-1-4.21-1.52-6.18-4.16.06-10.71-.09-14.78-1,0,0-9.3-9.61-15.23-12.42a5.51,5.51,0,0,0-2.84-.72C134.11,207.87,133,209.23,132.62,210.14Z" transform="translate(0 -54.95)"/><path class="cls-10" d="M112.84,195c1.79,4.36,4.23,12,2.78,16.63a2.45,2.45,0,0,0,1.11,2.87,17,17,0,0,0,11.9,2.51c5.31-.84,5.12-3.73,3.66-5.72a2.4,2.4,0,0,0-1.66-1c-5.29-.63-6.49-4.91-6.29-8.89Z" transform="translate(0 -54.95)"/><path class="cls-13" d="M117.53,197.65l6.81,3.78a17.69,17.69,0,0,0,.15,2.91,8.14,8.14,0,0,1-6.79-3.41C116.85,199.58,117,197.93,117.53,197.65Z" transform="translate(0 -54.95)"/><path class="cls-10" d="M109.44,188c2.27,6.74,3.26,10.79,7.69,13.37,6.65,3.9,14.29-1.53,14.08-8.79-.2-6.57-3.89-16.45-11.36-17.37A9.67,9.67,0,0,0,109.44,188Z" transform="translate(0 -54.95)"/><path class="cls-11" d="M128.8,185.3c.15.6,0,1.14-.42,1.24s-.81-.3-1-.88,0-1.13.43-1.23S128.65,184.72,128.8,185.3Z" transform="translate(0 -54.95)"/><path class="cls-14" d="M126,187.92a14.63,14.63,0,0,0,3.17,2.29,2.3,2.3,0,0,1-1.58,1.12Z" transform="translate(0 -54.95)"/><path class="cls-11" d="M125,181.22a.35.35,0,0,1,.33,0,2.7,2.7,0,0,0,2.42.3.35.35,0,0,1,.45.17.34.34,0,0,1-.17.45,3.39,3.39,0,0,1-3.09-.34.33.33,0,0,1-.11-.46h0A.29.29,0,0,1,125,181.22Z" transform="translate(0 -54.95)"/><path class="cls-11" d="M121.17,182.83a.33.33,0,0,0-.24.22,2.7,2.7,0,0,1-1.69,1.75.34.34,0,0,0,.16.66,3.4,3.4,0,0,0,2.19-2.21.32.32,0,0,0-.19-.42h0A.28.28,0,0,0,121.17,182.83Z" transform="translate(0 -54.95)"/><polygon class="cls-10" points="204.85 334.86 213.06 349.58 220.25 345.75 211.93 329.87 204.85 334.86"/><path class="cls-7" d="M149.24,266.64s30,42.16,38.84,68.42L216,390l-9.36,5.36S188,374.5,182.81,364.65c-2.56-4.88-6.47-15.33-9.27-20.06-7.18-12.16-25.95-33.19-33.34-45.2-2.7-4.39-9.32-18.45-9.32-18.45Z" transform="translate(0 -54.95)"/><path class="cls-12" d="M149.24,266.64s30,42.16,38.84,68.42L216,390l-9.36,5.36S188,374.5,182.81,364.65c-2.56-4.88-6.47-15.33-9.27-20.06-7.18-12.16-25.95-33.19-33.34-45.2-2.7-4.39-9.32-18.45-9.32-18.45Z" transform="translate(0 -54.95)"/><polygon class="cls-7" points="203.03 338.35 205.79 342.43 218.4 335.56 216.35 331.36 203.03 338.35"/><polygon class="cls-15" points="203.03 338.35 205.79 342.43 218.4 335.56 216.35 331.36 203.03 338.35"/><path class="cls-7" d="M221.26,400.68a.19.19,0,0,1-.2-.08.18.18,0,0,1,0-.22c.07-.12,1.83-2.84,3.15-3.07a1,1,0,0,1,.72.16.8.8,0,0,1,.36.78c-.11.54-.93,1.16-1.8,1.59A12.47,12.47,0,0,1,221.26,400.68Zm.43-.5c1.38-.47,3.13-1.36,3.24-2,0-.08,0-.21-.21-.37a.47.47,0,0,0-.44-.09,1,1,0,0,0-.34.11A8.45,8.45,0,0,0,221.69,400.18Z" transform="translate(0 -54.95)"/><path class="cls-7" d="M221.17,400.72a.2.2,0,0,1-.15-.13c0-.1-.77-2.23-.23-3.46a1.33,1.33,0,0,1,.78-.76c.48-.18.73,0,.84.2.54.77-.4,3.24-1.06,4.06,0,0,0,0-.06,0A.21.21,0,0,1,221.17,400.72Zm.44-4a.94.94,0,0,0-.47.51,5,5,0,0,0,.12,2.78c.62-1,1.14-2.81.86-3.31,0,0-.11-.16-.42,0l-.09.06Z" transform="translate(0 -54.95)"/><path class="cls-11" d="M220,399.74l-7.62,3.78a.73.73,0,0,0-.37.81l1.65,7.4a1.17,1.17,0,0,0,1.37.94.81.81,0,0,0,.22-.07c2.73-1.42,5.1-2.79,8.53-4.48,4-2,3.25-1,8-3.25,2.88-1.37,1.82-5.15.53-4.72-5.9,2-7.29.46-10.41-.63A2.59,2.59,0,0,0,220,399.74Z" transform="translate(0 -54.95)"/><path class="cls-16" d="M158.27,318.41c-4.93-18.39-8.07-32.2-8.07-32.2l-8.45,8.9C146.15,301.25,152.72,311.31,158.27,318.41Z" transform="translate(0 -54.95)"/><polygon class="cls-10" points="190 341.01 198.21 355.73 205.4 351.91 197.08 336.03 190 341.01"/><path class="cls-7" d="M137.43,275.86s27.4,48.7,35.8,65.36c7.68,15.25,27.94,55,27.94,55l-9.36,5.36S173.14,380.66,168,370.81c-2.56-4.89-6.47-15.33-9.27-20.07-7.18-12.16-24.14-34.51-33.34-45.2-6.62-7.68-10.7-24-10.7-24Z" transform="translate(0 -54.95)"/><polygon class="cls-7" points="188.18 344.51 190.94 348.58 203.55 341.72 201.51 337.51 188.18 344.51"/><polygon class="cls-15" points="188.18 344.51 190.94 348.58 203.55 341.72 201.51 337.51 188.18 344.51"/><path class="cls-7" d="M206.41,406.84a.23.23,0,0,1-.2-.08.2.2,0,0,1,0-.23c.07-.12,1.83-2.83,3.16-3.06a.91.91,0,0,1,.71.16.77.77,0,0,1,.36.77c-.11.55-.93,1.16-1.79,1.59A12.9,12.9,0,0,1,206.41,406.84Zm.43-.51c1.38-.47,3.13-1.35,3.24-2,0-.09,0-.22-.21-.38a.5.5,0,0,0-.44-.09,1.35,1.35,0,0,0-.34.11A8.73,8.73,0,0,0,206.84,406.33Z" transform="translate(0 -54.95)"/><path class="cls-7" d="M206.32,406.87a.2.2,0,0,1-.15-.12c0-.1-.77-2.24-.23-3.47a1.36,1.36,0,0,1,.78-.76c.48-.18.73,0,.84.2.54.78-.4,3.25-1.06,4.06a.08.08,0,0,1-.06,0A.21.21,0,0,1,206.32,406.87Zm.44-3.95a1,1,0,0,0-.47.5,5.06,5.06,0,0,0,.12,2.78c.62-1,1.14-2.81.86-3.3,0,0-.11-.16-.42,0l-.09.05Z" transform="translate(0 -54.95)"/><path class="cls-11" d="M205.11,405.9l-7.62,3.77a.74.74,0,0,0-.37.82l1.65,7.39a1.19,1.19,0,0,0,1.37.95l.22-.08c2.73-1.41,5.1-2.79,8.53-4.48,4-2,3.25-1,8-3.24,2.88-1.38,1.82-5.16.53-4.73-5.9,2-7.29.47-10.41-.62A2.5,2.5,0,0,0,205.11,405.9Z" transform="translate(0 -54.95)"/><path class="cls-7" d="M113.8,269.73s-.7,10.82,3.57,20.53,28.35,3.68,29.4,3.59l1.34-3c3.36-7.51,3.23-15.88.87-23.77Z" transform="translate(0 -54.95)"/><path class="cls-11" d="M98.73,218.14,107.48,241a63,63,0,0,1,3.09,11l3.25,17.68,35.42-3.08L141.06,213c-.23-2.75-4.53-5.76-7.15-4.9l-32,4C99.85,212.78,98.24,216,98.73,218.14Z" transform="translate(0 -54.95)"/><path class="cls-11" d="M97.79,220.32A36.72,36.72,0,0,0,104,248.61c-3.33,9.53-.58,21.06,7.56,27-.31,1.66-.27,3.8.88,5a208.28,208.28,0,0,0,40.52-7.73,10.65,10.65,0,0,0,1.29-.69c-1.07-1.06-1.9-2.26-3-3.33,3.92-7.9,2.27-17.91-4.31-23.79,3.56-12,0-26.18-8.62-35.29a6.71,6.71,0,0,0-6.14-2,147.36,147.36,0,0,1-21.6,2.54c-3.16.14-6.45.2-9.23,1.69s-4.79,5-3.51,7.86C97.49,219.37,97.79,220.32,97.79,220.32Z" transform="translate(0 -54.95)"/><path class="cls-12" d="M121.65,209.73c13.08,35.49,2.63,44.06,12.87,62.61a8.87,8.87,0,0,1,4.12-.82,36.62,36.62,0,0,1-5.48-21.24c.57-13.6-3-27.88-7.86-40.58C124.55,210.42,122.67,209.91,121.65,209.73Z" transform="translate(0 -54.95)"/><path class="cls-11" d="M119.44,187.56a.21.21,0,0,0-.13.27h0a.24.24,0,0,0,.29.11c1.7-.7,2.17-.86,3.75.09a.22.22,0,0,0,.3,0,.23.23,0,0,0-.05-.3C122.06,186.3,119.78,187.43,119.44,187.56Z" transform="translate(0 -54.95)"/><path class="cls-11" d="M131.34,169.46a4.08,4.08,0,0,0,1.23-1.65,2,2,0,0,0-.3-1.95,2.55,2.55,0,0,0-1.94-.68,6.89,6.89,0,0,0-5.24,2.2,1.32,1.32,0,0,0,.21-1.69,2,2,0,0,0-1.58-.84,3.94,3.94,0,0,0-1.81.42,7.19,7.19,0,0,0-4.14,5.56,28.61,28.61,0,0,0-8.2,4.41,12.5,12.5,0,0,0-4.65,7.87,8.08,8.08,0,0,0,3.74,8c.94.52,1.39,1.61,2.46,1.76a11.2,11.2,0,0,0,3.21-.17,2.55,2.55,0,0,0,1.42-.51.92.92,0,0,0,.1-1.34c.89-.44,1.08-2,.89-3a2.35,2.35,0,0,0-2.06-1.86,4.23,4.23,0,0,0,3.14-2.48,1.78,1.78,0,0,0,.21-1.43.84.84,0,0,0-1.2-.46,8.7,8.7,0,0,0,3-.81,3.76,3.76,0,0,0,2.46-2.34,3.14,3.14,0,0,0,2.54.85,10.34,10.34,0,0,0,3-.83,2,2,0,0,0,1-.63.71.71,0,0,0-.2-1,4.18,4.18,0,0,0,4.34-1.44,2.89,2.89,0,0,0,.73-2.6,1.65,1.65,0,0,0-2.21-1.08,2.36,2.36,0,0,0,1-.83,1.21,1.21,0,0,0,0-1.36C132.19,169.19,131.55,169,131.34,169.46Z" transform="translate(0 -54.95)"/><path class="cls-11" d="M125.94,194.64c.14.6-.11,1.17-.54,1.26s-.89-.31-1-.91a1,1,0,0,1,.54-1.26C125.36,193.64,125.81,194.05,125.94,194.64Z" transform="translate(0 -54.95)"/><path class="cls-7" d="M175.5,233.6c-.51,1.09-3.79,7.33-6.23,7.14s-4.53-1.72-6.55-3.1-4.34-2.7-6.77-2.36c-4,.55-6.17,5.19-10,6.54-3.35,1.18-7-.5-9.9-2.59a33.71,33.71,0,0,1-13.31-22.87,25.8,25.8,0,0,0,3.34-4.44,6.57,6.57,0,0,0,.85-2.28c3.09,5,6.24,10,9.3,15,1.17,1.93,2.42,3.92,4.34,5.11s4.71,1.29,6.21-.41c2.68-3,7.07-4.9,10.75-3.25,2.08.95,3.68,2.7,5.55,4s4.41,2.18,6.42,1.09A15.22,15.22,0,0,0,175.5,233.6Z" transform="translate(0 -54.95)"/><path class="cls-17" d="M175.5,233.6c-.51,1.09-3.79,7.33-6.23,7.14s-4.53-1.72-6.55-3.1-4.34-2.7-6.77-2.36c-4,.55-6.17,5.19-10,6.54-3.35,1.18-7-.5-9.9-2.59a33.71,33.71,0,0,1-13.31-22.87,25.8,25.8,0,0,0,3.34-4.44,6.57,6.57,0,0,0,.85-2.28c3.09,5,6.24,10,9.3,15,1.17,1.93,2.42,3.92,4.34,5.11s4.71,1.29,6.21-.41c2.68-3,7.07-4.9,10.75-3.25,2.08.95,3.68,2.7,5.55,4s4.41,2.18,6.42,1.09A15.22,15.22,0,0,0,175.5,233.6Z" transform="translate(0 -54.95)"/><path class="cls-13" d="M131.93,217.63c1.56,3.81-8.68,1.92-8.68,1.92l-.5-3.15s0,0,0,0c3.73,1.15,8,.45,8.14-.34C130.93,216,131.93,217.65,131.93,217.63Z" transform="translate(0 -54.95)"/><path class="cls-7" d="M112.72,211.4a7.33,7.33,0,0,0,1.27,1.8,6.5,6.5,0,0,0,2,1.38A27.69,27.69,0,0,0,127.18,217c1.84,0,3.83-.26,5.16-1.52a5.63,5.63,0,0,0,.9-6.21c-.86-2.05-5-5.65-9.22-6.25a4.22,4.22,0,0,0,1.19,2.36c.54.65-.12.86-1.66,1.06-8,1.1-8-2.51-8-2.51-1.36-.24-2.86,1.33-3.13,2-.06.15-.12.3-.16.44A6.65,6.65,0,0,0,112.72,211.4Z" transform="translate(0 -54.95)"/><path class="cls-17" d="M112.72,211.4a7.33,7.33,0,0,0,1.27,1.8,6.5,6.5,0,0,0,2,1.38A27.69,27.69,0,0,0,127.18,217c1.84,0,3.83-.26,5.16-1.52a5.63,5.63,0,0,0,.9-6.21c-.86-2.05-5-5.65-9.22-6.25a4.22,4.22,0,0,0,1.19,2.36c.54.65-.12.86-1.66,1.06-8,1.1-8-2.51-8-2.51-1.36-.24-2.86,1.33-3.13,2-.06.15-.12.3-.16.44A6.65,6.65,0,0,0,112.72,211.4Z" transform="translate(0 -54.95)"/><path class="cls-7" d="M168.44,231.46c1.33-.87,2.67-3.06,2.46-4.63a1.1,1.1,0,0,1,1.27,0,6.28,6.28,0,0,1-1.16,3.32,5.51,5.51,0,0,0,2.34-3,7,7,0,0,1,3.59,1.77c-.48.9-1.14,2-1.62,2.94a4.46,4.46,0,0,0,2.09-2.25c.05.33.51,1,.84.94-.91,1-1.91,2.15-2.82,3.19C173.14,233.61,170.05,233.1,168.44,231.46Z" transform="translate(0 -54.95)"/><path class="cls-10" d="M154.74,229.14l8.83-.91,6.58-4.12a2.74,2.74,0,0,0,1.27-2.12l.12-1.68a2.76,2.76,0,0,0-2.8-2.94l-2.7,0a2.73,2.73,0,0,0-2.23,1.21l-3.15,4.72-7.64.07Z" transform="translate(0 -54.95)"/><path class="cls-11" d="M100.11,213.73a6.19,6.19,0,0,1,7.24-1.51c6.06,2.83,17.1,7.77,22,8.7,6.8,1.29,27.89,1,27.89,1l.3,8.27s-23.17,2.75-30.86,1.9c-5.5-.61-16.8-5.28-24.41-8.65a6.19,6.19,0,0,1-2.16-9.75Z" transform="translate(0 -54.95)"/><path class="cls-18" d="M100.11,213.73a6.19,6.19,0,0,1,7.24-1.51c6.06,2.83,17.1,7.77,22,8.7,6.8,1.29,27.89,1,27.89,1l.3,8.27s-23.17,2.75-30.86,1.9c-5.5-.61-16.8-5.28-24.41-8.65a6.19,6.19,0,0,1-2.16-9.75Z" transform="translate(0 -54.95)"/><path class="cls-12" d="M124.27,248.27l-15.56,1.22A22.19,22.19,0,0,1,124.27,248.27Z" transform="translate(0 -54.95)"/><path class="cls-12" d="M136.14,247.44,144,246a7.52,7.52,0,0,0-8,1.47" transform="translate(0 -54.95)"/><path class="cls-12" d="M154.2,272.25a9.42,9.42,0,0,1-1.29.69,208.14,208.14,0,0,1-40.52,7.73c-1.14-1.21-1.18-3.3-.89-4.93A359.32,359.32,0,0,0,151.26,269C152.32,270,153.14,271.2,154.2,272.25Z" transform="translate(0 -54.95)"/></g><g id="Umbrella"><path class="cls-7" d="M299.15,262.32c9.43-3.27,19.85-5.7,29.82-5.39,3.65-16.87,15.57-33,30.31-42-11.85-25.67-16.3-54.3-14.67-82.52A69.58,69.58,0,0,1,293.88,113c-6.55,8.72-17.67,15.84-26.82,21.77-3,21.8-14.13,39.91-22.63,59.77,10.24,10.71,27,26.5,38.11,40.74S299.25,262.17,299.15,262.32Z" transform="translate(0 -54.95)"/><line class="cls-19" x1="244.62" y1="140.45" x2="294.74" y2="57.82"/><line class="cls-19" x1="244.62" y1="140.45" x2="346.15" y2="77.55"/><line class="cls-19" x1="244.62" y1="140.45" x2="361.63" y2="159.98"/><line class="cls-19" x1="244.62" y1="140.45" x2="330.29" y2="203.7"/><line class="cls-20" x1="185.82" y1="153.45" x2="244.62" y2="140.45"/><path class="cls-21" d="M179.22,223.59l-.8.18a6.69,6.69,0,0,1-8-5.09h0a6.67,6.67,0,0,1,5.06-8l18.67-4.18" transform="translate(0 -54.95)"/><path class="cls-12" d="M344.62,132.43c0,.36,0,.7-.06,1L245,195.15l-.16-.17,49.48-81.57A69.46,69.46,0,0,0,344.62,132.43Z" transform="translate(0 -54.95)"/><path class="cls-16" d="M294.36,113.41,244.88,195c-.15-.15-.3-.32-.45-.48,8.5-19.85,22-41.55,22.63-59.76,9.14-5.93,20.27-13.05,26.82-21.77C294,113.12,294.2,113.27,294.36,113.41Z" transform="translate(0 -54.95)"/><path class="cls-12" d="M359.28,215c-14.74,9-26.65,25.1-30.31,42h-1.05L246.75,197l-1.35-1.44,113.68,19C359.14,214.66,359.21,214.8,359.28,215Z" transform="translate(0 -54.95)"/><path class="cls-22" d="M359.08,214.51l-113.68-19-.36-.38,99.52-61.67C343.1,161.2,347.53,189.27,359.08,214.51Z" transform="translate(0 -54.95)"/><path class="cls-16" d="M327.92,256.91c-9.66-.12-19.68,2.26-28.76,5.41.09-.15-5.51-12.88-16.62-27.07C272.2,222,256.7,207.72,246.75,197Z" transform="translate(0 -54.95)"/></g></svg>